<?xml version="1.0" standalone="no"?>
<!DOCTYPE svg PUBLIC "-//W3C//DTD SVG 20010904//EN"
 "http://www.w3.org/TR/2001/REC-SVG-20010904/DTD/svg10.dtd">
<svg version="1.0" xmlns="http://www.w3.org/2000/svg"
 width="800.000000pt" height="800.000000pt" viewBox="0 0 800.000000 800.000000"
 preserveAspectRatio="xMidYMid meet">
<metadata>
Created by potrace 1.11, written by Peter Selinger 2001-2013
</metadata>
<g transform="translate(0.000000,800.000000) scale(0.100000,-0.100000)"
fill="#000000" stroke="none">
<path d="M4625 4960 c-119 -16 -353 -116 -469 -201 -45 -32 -62 -36 -85 -15
-36 32 -163 96 -247 125 -177 59 -385 59 -573 -1 -181 -57 -334 -145 -620
-354 -146 -106 -275 -181 -352 -204 -85 -26 -174 -26 -214 -2 -138 85 -119
343 28 383 56 15 113 6 192 -32 105 -50 113 -9 17 87 -52 52 -133 86 -222 92
-122 8 -260 -67 -341 -185 -77 -111 -121 -294 -98 -404 47 -225 238 -413 518
-508 155 -52 328 -76 556 -75 230 0 372 20 565 78 163 50 238 79 369 145 166
84 280 155 378 238 28 23 57 43 65 43 7 0 40 -20 73 -45 165 -123 453 -250
735 -324 343 -89 819 -88 1100 1 288 92 477 254 544 466 94 299 -80 605 -372
654 -129 22 -243 -23 -298 -118 -25 -43 -29 -94 -8 -101 5 -2 31 10 56 27 56
37 131 53 195 41 36 -7 56 -19 84 -49 69 -73 75 -157 18 -228 -82 -104 -196
-130 -344 -79 -76 26 -169 71 -245 120 -19 12 -69 43 -110 69 -41 26 -84 52
-94 59 -11 7 -57 36 -102 64 -122 77 -296 165 -399 200 -99 35 -202 46 -300
33z"/>
<path d="M1475 4860 c-17 -27 -453 -1176 -448 -1182 2 -5 28 -8 58 -8 l53 0
56 143 c207 532 402 1047 398 1052 -10 9 -111 5 -117 -5z"/>
<path d="M510 4497 l-365 -163 0 -47 0 -48 359 -160 c197 -87 363 -159 368
-159 5 0 8 28 6 61 l-3 62 -278 120 c-153 66 -274 123 -270 127 4 5 131 61
281 126 l272 117 0 64 c0 34 -1 63 -2 63 -2 0 -167 -74 -368 -163z"/>
<path d="M6816 4652 c-12 -11 -6 -110 7 -119 6 -5 120 -56 252 -113 132 -56
255 -110 273 -120 l34 -16 -39 -15 c-21 -9 -149 -64 -285 -124 l-248 -107 0
-59 c0 -37 4 -59 11 -59 6 0 175 73 376 162 l364 162 -3 44 -3 44 -280 125
c-154 68 -319 141 -367 163 -47 21 -89 36 -92 32z"/>
<path d="M2720 2115 l0 -375 50 0 50 0 2 203 3 202 54 28 c81 41 151 35 176
-14 12 -22 15 -72 15 -224 l0 -195 56 0 56 0 -4 213 c-3 197 -5 215 -26 255
-41 77 -126 107 -224 78 -30 -9 -67 -25 -81 -37 l-27 -20 0 130 0 131 -50 0
-50 0 0 -375z"/>
<path d="M6770 2379 c0 -102 -1 -111 -17 -104 -142 54 -275 4 -334 -127 -34
-75 -34 -219 0 -296 56 -125 179 -164 306 -97 43 24 45 24 45 5 0 -17 7 -20
50 -20 l50 0 0 375 0 375 -50 0 -50 0 0 -111z m-31 -190 l31 -11 0 -153 0
-154 -55 -27 c-44 -21 -65 -25 -101 -21 -81 9 -114 61 -114 182 0 88 15 131
59 168 27 23 42 27 90 27 32 0 72 -5 90 -11z"/>
<path d="M3560 2467 c-69 -15 -141 -57 -174 -100 -120 -157 -101 -458 36 -570
135 -111 357 -97 468 29 127 146 114 450 -26 573 -74 65 -196 92 -304 68z
m175 -106 c87 -40 129 -122 130 -256 0 -112 -21 -177 -73 -228 -47 -45 -78
-57 -153 -57 -125 0 -198 72 -218 214 -16 109 11 229 62 285 54 59 173 79 252
42z"/>
<path d="M710 2461 c-74 -24 -129 -71 -154 -133 -27 -65 -14 -137 35 -193 37
-41 83 -60 216 -85 147 -27 183 -50 183 -117 0 -122 -232 -153 -391 -52 -25
16 -49 29 -52 29 -4 0 -7 -29 -7 -64 l0 -65 54 -20 c126 -47 285 -47 382 -1
123 60 164 219 81 308 -36 39 -87 59 -218 86 -134 28 -169 46 -183 93 -12 44
10 83 64 111 39 20 55 23 122 19 75 -5 96 -12 221 -75 4 -2 7 25 7 60 l0 64
-57 19 c-63 20 -258 31 -303 16z"/>
<path d="M5333 2451 c-140 -48 -214 -167 -215 -347 -1 -144 40 -248 122 -310
106 -80 280 -91 422 -27 l58 26 0 58 c0 66 -8 71 -51 35 -70 -59 -217 -84
-297 -50 -108 45 -165 177 -141 326 23 140 105 218 232 218 70 0 144 -23 195
-60 23 -16 46 -30 52 -30 6 0 10 26 10 61 0 60 0 60 -37 76 -110 46 -256 57
-350 24z"/>
<path d="M1237 2434 c-4 -4 -7 -40 -7 -81 l0 -73 -30 0 c-28 0 -30 -2 -30 -40
0 -37 2 -40 29 -40 l28 0 5 -179 c4 -154 7 -183 24 -212 33 -57 77 -79 153
-79 102 0 111 5 111 56 l0 43 -68 -6 c-63 -5 -71 -4 -90 18 -21 21 -22 32 -22
191 l0 168 90 0 90 0 0 40 0 40 -90 0 -89 0 -3 78 -3 77 -45 3 c-25 2 -49 0
-53 -4z"/>
<path d="M1725 2291 c-93 -15 -95 -16 -95 -72 0 -27 4 -49 9 -49 5 0 28 7 52
16 25 9 76 16 118 16 87 0 124 -20 129 -69 l3 -30 -83 -7 c-195 -16 -278 -75
-278 -196 0 -151 156 -223 311 -144 48 24 49 24 49 4 0 -17 7 -20 50 -20 l50
0 0 219 c0 209 -1 219 -23 252 -43 65 -167 99 -292 80z m215 -346 l0 -75 -50
-25 c-54 -27 -122 -33 -164 -14 -35 16 -52 69 -34 106 24 49 66 64 236 82 9 1
12 -20 12 -74z"/>
<path d="M2333 2290 c-85 -18 -134 -59 -153 -129 -9 -35 -5 -64 15 -114 11
-27 83 -64 150 -77 100 -18 144 -38 151 -67 9 -33 -4 -53 -47 -76 -47 -25
-125 -17 -204 22 -35 17 -65 31 -69 31 -3 0 -6 -24 -6 -54 l0 -55 58 -21 c73
-28 198 -31 257 -6 76 32 115 86 115 158 -1 92 -49 129 -208 159 -81 15 -114
40 -110 83 7 69 120 84 234 32 31 -14 58 -26 60 -26 2 0 4 25 4 55 l0 54 -52
15 c-73 20 -145 26 -195 16z"/>
<path d="M5968 2288 c-47 -12 -113 -69 -141 -122 -19 -35 -22 -56 -22 -156 0
-124 9 -155 64 -213 113 -123 329 -89 399 61 23 49 27 70 27 152 0 82 -4 103
-26 151 -52 110 -173 161 -301 127z m161 -105 c44 -32 64 -85 64 -173 0 -132
-48 -195 -148 -195 -48 0 -58 4 -88 33 -43 42 -61 101 -55 184 7 119 66 184
157 175 24 -3 55 -13 70 -24z"/>
<path d="M7172 2282 c-101 -36 -160 -122 -169 -246 -10 -128 38 -230 130 -278
64 -33 204 -37 291 -8 l66 22 0 47 c0 26 -3 50 -6 53 -3 4 -27 -5 -52 -18
-104 -53 -216 -49 -276 10 -32 32 -62 108 -51 126 4 6 85 10 202 10 l196 0 -7
71 c-13 143 -79 214 -207 225 -48 3 -78 0 -117 -14z m157 -85 c29 -15 57 -53
65 -89 l6 -28 -145 0 c-127 0 -145 2 -145 16 0 29 39 81 73 98 38 19 113 21
146 3z"/>
<path d="M4110 2070 c0 -235 4 -255 63 -307 61 -53 147 -56 236 -7 53 29 51
29 51 4 0 -17 7 -20 50 -20 l50 0 0 270 0 270 -50 0 -50 0 0 -199 0 -200 -27
-18 c-74 -50 -145 -57 -190 -19 l-28 24 -3 206 -3 206 -50 0 -49 0 0 -210z"/>
<path d="M4730 2010 l0 -270 50 0 50 0 0 190 0 190 43 27 c36 24 53 28 122 30
l80 2 0 48 0 48 -71 0 c-62 0 -77 -4 -122 -32 l-52 -32 0 34 0 35 -50 0 -50 0
0 -270z"/>
</g>
</svg>
